<mxfile host="app.diagrams.net" modified="2022-04-27T01:22:05.658Z" agent="5.0 (Windows NT 10.0; Win64; x64) AppleWebKit/537.36 (KHTML, like Gecko) Chrome/99.0.4844.51 Safari/537.36 Edg/99.0.1150.39" etag="_iJLy06F-qSudSdkzGzr" version="17.4.6" type="github">
  <diagram id="hmIAbFtHb3Cqtu4mIytf" name="第 1 页">
    <mxGraphModel dx="2249" dy="762" grid="1" gridSize="10" guides="1" tooltips="1" connect="1" arrows="1" fold="1" page="1" pageScale="1" pageWidth="827" pageHeight="1169" math="0" shadow="0">
      <root>
        <mxCell id="0" />
        <mxCell id="1" parent="0" />
        <mxCell id="iC3KizNjgPE-SNTELtVi-2" value="" style="shape=image;verticalLabelPosition=bottom;labelBackgroundColor=default;verticalAlign=top;aspect=fixed;imageAspect=0;image=data:image/png,iVBORw0KGgoAAAANSUhEUgAABHUAAAGNCAYAAACfa03+AAAgAElEQVR4nOzdf3hU5Z3//1eEkCFmIIDySyQMKeIKheAEUpNiAwTh00sLi+5qtQpujcHVgK7SdZsFKly5Vhd3+ZDYSxOUBqnaWpolytVPlFBBCRRMWmDjiuFHTIAEEEgg6TDAar5/8D3H/P4xSebMmTwf15UrkDPvc953zp17Zt5z7vuE1NfX16sVlZWVGjlyZGub21RbWyun02mrWNrrn+PSXv/E0l7/HJf2+ieW9vrnuLTXP7G01z/Hpb3+iaW9/jku7fVPLO31z3Fpb/fGhpw8ebLVok5XOJ1O1dbW2iq2K2hv4Md2Be0N/NiuoL2BH9sVtDfwY7uC9gZ+bFfQ3sCP7QraG/ixXUF7Az+2K2hv4MSGcKXOt2ivf45Le/0TS3v9c1za659Y2uuf49Je/8TSXv8cl/b6J5b2+ue4tNc/sbTXP8elvd0be51PewYAAAAAAIClKOoAAAAAAADYEEUdAAAAAAAAG6KoAwAAAAAAYEMUdQAAAAAAAGyIog4AAAAAAIANUdQBAAAAAACwIYo6AAAAAAAANkRRBwAAAAAAwIYo6gAAAAAAANgQRR0AAAAAAAAboqgDAAAAAABgQxR1AAAAAAAAbCjk4sWL9a1trK2tldPp9Gc+lqK9wY32BjfaG9xob3CjvcGN9gY32hvcaG9wo73BoW9bjepKo4klllhiiSWWWGKJJZZYYoklllhiie25WKZfAQAAAAAA2BBFHQAAAAAAABuiqAMAAAAAAGBDFHUAAAAAAABsiKIOAAAAAACADVHUAQAAAAAAsCGKOgAAAAAAADZEUQcAAAAAAMCGKOoAAAAAAADYEEUdAAAAAAAAG6KoAwAAAAAAYEMUdQAAAAAAAGyIog4AAAAAAIANhVy8eLG+tY21tbVyOp3+zMdStDe40d7gRnuDG+0NbrQ3uNHe4EZ7gxvtDW60Nzj0batRXWk0scQSSyyxxBJLLLHEEkssscQSSyyxPRfL9CsAAAAAAAAboqgDAAAAAABgQxR1AAAAAAAAbIiiDgAAAAAAgA1R1AEAAAAAALAhijoAAAAAAAA2RFEHAAAAAADAhijqAAAAAAAA2BBFHQAAAAAAABuiqAMAAAAAAGBDFHUAAAAAAABsiKIOAAAAAACADVHUAQAAAAAAsKGQixcv1re2sba2Vk6n05/5WIr2BjfaG9xob3CjvcGN9gY32hvcaG9wo73BjfYGh75tNaorjSaWWGKJJZZYYoklllhiiSWWWGKJJbbnYpl+BQAAAAAAYEMUdQAAAAAAAGyIog4AAAAAAIANUdQBAAAAAACwIYo6AAAAAAAANkRRBwAAAAAAwIYo6gAAAAAAANgQRR0AAAAAAAAboqgDAAAAAABgQxR1AAAAAAAAbIiiDgAAAAAAgA1R1AEAAAAAALAhijoAAAAAAAA2FHLy5Mn6ntix0+lUbW2trWK7gvYGfmxX0N7Aj+0K2hv4sV1BewM/titob+DHdgXtDfzYrqC9gR/bFbQ38GO7gvYGTmxIfX19q0WdyspKjRw50qeD19bWyul02iqW9vrnuLTXP7G01z/Hpb3+iaW9/jku7fVPLO31z3Fpr39iaa9/jkt7/RNLe/1zXNrbvbFMvwIAAAAAALChvlYnAADwD4/Ho9LSUu3fv19ffvmljh8/Lo/Ho0uXLpnfvV6vHA6H+vfvr/DwcPP7zTffrPHjxysqKkoxMTEKDw+3ujkAAABAr0dRBwCC1JUrV/Tpp59q586dKioqUkVFhdqYcWvyeDzyeDw6d+6c+bP9+/fr/ffflySFhIRo9OjRmjp1qmbNmqUpU6YoNDS0x9oBAAAAoGUUdQAgiFy9elW7du1Sfn6+9u7d22hhNafTKZfLpXHjxumWW27RmDFjFBERofDwcPMrLCxMly9fNgs7Ho9HdXV1Ki8vV2lpqY4dO6YjR46ovLxc5eXl2rx5swYMGKD4+HjNnj1bCQkJFHgAAAAAP6GoAwBB4Ouvv1ZBQYHWr1+vsrIy8+e33nqrkpKSNGPGDEVFRSkkJKTdfRkFnoZiY2PNf9fX16u8vFwfffSRCgoKdOjQIeXn5ys/P18ul0vJyclKSkpSnz59uq+BAAAAAJqhqAMANrdjxw5lZWWptLRUkjRs2DDNnz9fs2bNUnR0dLcfLyQkRGPGjNGjjz6qRx99VEePHtX27du1ZcsWlZWV6ec//7lycnKUkpKixMTEbj8+AAAAgGtsXdT5h3/4Bx04cMDqNNAFkydP1oYNG6xOA7ClU6dO6YUXXtC+ffskSS6XSz/5yU80d+5cORwOv+URHR2t6OhoPfLII8rPz9evf/1rlZaW6tlnn9W0adO0cuVKDR8+3G/5AAAAAL2FrYs6FHTsj3MI+Gbbtm3auHGjLly4oNGjR2vJkiW68847LZ3y5HA4NH/+fN1zzz36+OOPlZGRoX379unBBx/U0qVLNXPmTMtyAwAAAIKRrYs6huLiYqtTgA/cbrfVKQC2c/78eb300ksqKCiQJP34xz/W4sWLFRERYXFm3+rTp49mzJihqVOn6rXXXtM777yjVatW6eOPP1ZaWpoGDx5sdYoAAABAUAiKog4A9AZnzpzR4sWLVV5erhtvvFFpaWmaPn261Wm1KiIiQs8995zi4uKUnp6uHTt2qKysTK+99pqGDh1qdXoAAACA7V1ndQIAgPZVVlbqscceU3l5ucaNG6e33noroAs6DU2fPl1vvfWWxo0bp/Lycv30pz/VyZMnrU4LAAAAsD2u1AEC0u8kSU6n73sYOdL32PaOW1UVphEjfuT7AdAp5eXlWrx4sc6cOaOJEycqIyNDAwcOtDqtThkyZIiysrK0ZMkSlZSU6LHHHtOrr76qMWPGWJ0aAAAAYFtcqQOg06qq9qiq6j2r0+gVTp48qZ/+9Kc6c+aMYmNj9ctf/tJ2BR3DwIED9corryg2NlZnzpxRcnIyV+wAAAAAXRBy8eLF+tY21tbWytmVSwV6WGJioiQWSrYrY6HkHTt2+OV4gd6fG3I6861OoU1//vOfJUk33BCrQYPusjiba+x0fjvq8uXLeuqpp3T48GHdcccd+vd//3eFh4dbnVaXeTwe/exnP9OePXs0btw4vfLKKwoLC2szJhjPb1tob3CjvcGN9gY32hvcaG9wC9b29m2rUV1ptFWxsJ/OnGs79slg7s9nzxYpNDS00VQsO/6eAzX2jTfe0OHDhzVixAitXr06KAo6khQeHq7Vq1fr4Ycf1uHDh/XrX/9aTz/9dJsxgXqOiCWWWGKJJZZYYokl1spYpl8B6BKmYvWMHTt2aNOmTerXr59efPFFDRo0yOqUutWgQYP04osvql+/ftq0aZPfrtgDAAAAgglFHQBdRmGne509e1bp6emSpJSUFE2cONHijHrGxIkTlZKSIklKT0/X2bNnLc4IAAAAsBeKOgC6BYWd7vPb3/5W58+fV1xcnBYtWmR1Oj1q0aJFiouL0/nz5/Xb3/7W6nQAAAAAW6GoA6DbVFXtUXX1h1anYWu1tbX6/e9/L0nmVSzBzmjn73//e9XW1lqcDQAAAGAfFHUAdKuzZ4u4YqcLtmzZogsXLigmJkaTJ0+2Oh2/mDx5smJiYnThwgVt2bLF6nQAAAAA26CoA6DbMRXLN5cvX9a7774rSUE/7aopo73vvvuuLl++bHE2AAAAgD1Q1AHQIyjsdN7evXtVWVmpsWPHKiEhwep0/CohIUFjx45VZWWl/vSnP1mdDgAAAGALFHUA9BgKO51TWFgoSbrrrrt03XW9a3i+7rrrNHv2bEnSJ598YnE2AAAAgD30rncNAPyOwk7H/fnPf5YkxcXFWZyJNWJjYyVJRUVFFmcCAAAA2ANFHQA9jsJO+06dOqVjx47p+uuv19/8zd9YnY4lvvvd7yo8PFzHjx/XyZMnrU4HAAAACHgUdQD4BYWdtu3du1eS5Ha7FRoaanE21ggNDdWUKVMkSZ9++qnF2QAAAACBj6KOhbxer9LS0nT33XerrKzM/HlxcbHS0tLk9XrNn5WVlWnJkiWqqamxIlXYTE3NJS1c+Kbc7hdb/UpLe09e79U295GW9p5qai51W14Udlq3f/9+Sd9OQeqtjKlnBw4csDgTAAAAIPD1tTqBYFZcXKzHH3+81e0jRoxQZmamXC5Xo5/v3r1bCxYskMPhMH/mcrk0btw4bdq0SampqS3uz+v1avXq1ZKk5cuXN4qH/23cuFEzZszQoEGDLDn+qFGRWrfu7xQZ2b/ZtpqaS9q0aa/P+7799tu7kFlw3676D3/4g4YMGaLY2Fj16dOnw3FGwXbEiBEdjjHGmBEjRuj5559Xdna2XnjhBblcLuXl5amioqLV8cJgjBsLFiyQ2+3u8LF7itF+CtgAAABA+/rW1ta2+YD2tgdibKBwu90qLi6WdO0NytKlSzVq1Kg2Cy5lZWWqq6vThAkTlJeXp1WrVjV7TE5OjiRp4sSJWrdunSIjIyVJVVVVunjxoi5cuKCqqqpmxaJA1dlzbZc+mZGRoYyMDH3nO9/R9OnTdeedd3b4nDidvmTou8zMHcrJafk20vn5/9PsZ4sWfU+pqYk+H6+t36Vdzm9rsfv27dP7778vp9OphIQEJSYm6vbbb1e/fv3ajK2urpYkDRw4sEPHrKmpUUZGhrKzs+V2uxtd7RdI8vLytG/fvg4Xmo32V1dXNzsngXB+iSWWWGKJJZZYYoklNpBi+zrbePdYW1urtra3d2ArYgON8Sn4iRMnGhVgpG8/ZTfelEnS1q1bddddd+mzzz7Tvn37VFhYKK/Xq6VLl2rJkiVtfpJ+8OBBJSUlqaKiQlu3bm33E/pA0Zlzbcc+eeTIER05ckS/+tWvNHbsWM2YMUMzZ87Urbfe6tP+ekJqamKzIk1NzSWtWbNNy5bNbvFqn65o7Xdpx/PbNNZYD6e2tlb5+fnKz89XRESEvv/972v27NmKi4tT//79m8V6PB5J0oABAzp03OrqatXX12vw4MGSrl3N9+abb/rUhkBitN/j8TT6vQbK+SWWWGKJJZZYYokllthAimVNnR5UU1OjlJQU5efnq6SkRLNmzZLb7Ta/cnNzVVhYaBZqGl6lc/jwYS1btkwOh0ObNm0yp0bU1NQoLS2t2dSEmpoabd++XZMmTVJ8fLyKioqYvhCAjh07pjfeeEMPPfSQ5s+fr4yMDJWUlFidFnpYXV2d8vPz9eyzz+quu+7Sz372M23bts0s5EjSxYsXJXXsSp3i4mLdd999+uyzz3TfffcpLS1NX3zxhR555JFWr9ipqanRwoULzfEnLy+v0XZjja/Wtufl5ZnbFi5c2Gh8KSsr0913321uN65QzMzM1KpVq5Sfn6+EhIRm+2yJ0X7j9wEAAACgdayp04MiIyO1ceNG8/9N17yprq5uNB3h4MGD2rx5szZv3qzs7GxFRkaab4LmzZtn7nPBggXN1tY5evSonE6nRowYoREjRmjUqFE6evRoQKyR0R475NgTjh8/ro0bN2rjxo0aPny4Zs6cqZkzZyomJkYhIV3f/4kTNZo1a12r2+fOva3R/1ubgtV0+tWKFT/UvHmTupRbbz3n0rUrULZv367t27crLCxMcXFxmj17ti5cuCCpY0Udt9utzZs3a+XKleYaOm1NvzKmfy5YsEAbN25sNB10woQJkqR/+7d/U2ZmptLT01VWVqbU1FSNGjXKLPDk5uZq+/bt5ri0Zs0aLV++XNK1O3dt3rxZDodDeXl5ysjI0Lp165SamqrRo0f7NP3q4sWLQddPnE6n/vVf/1VJSUlWpwIAAIAgQVHHDxouZtpwYeR9+/Y1erMzb948zZkzR16vV5GRkSorK9P69etVVVVlrqPTUHx8vPmmZ/fu3Zo2bZr5pmnatGnKzc3VhAkTWDC5l+rsQslNp2BlZu5QfPxYud2jezzX3q6+vr5H979z506NGjVKc+bMkXStOBwbG6sTJ06YRZ3k5GRzbHK5XJozZ452796t6Oho5ebmasmSJeb00UmTJmn79u3mWPXAAw+YxzK2obna2lodO3bM6jQAAAAQRCjq9CDj03Bjek1VVZXuu+++Zo8z1ttxOBxavXq18vPzJUlz587V5s2b9dlnn2n37t1KTk7W2rVr9cADD2jQoEFas2aNoqOjJUlFRUXKyclptLDyiBEjbLFgsjFVoyO6Mh+xsrJSI0eO9CnWl+O2d5XBzTffbF6dM3HiRJ/y6k5GEWf37mOKjx+r5OQErV37Rw0efL1criHyeq9q9er/pwULYrpc6GntnNvp/LYWm56ertzc3FYfHx4ervj4eCUlJWnSpEkaNmyYpGtTlb766itduHBBQ4cO9SmXthjr+zS0aNEi89+jRo1qtG306NGqqKgw/9/0Tn4jRowwrzZsOG413NZwDbGOMq5YGjBgQKN9Bsr59TU2OztbWVlZPu0HAAAAaA1FnR7UdPqVdG3tid/85jd65plnzCtoiouLtWbNGj3yyCM6cOBAo4WTDaNHN34THRkZqfT0dEnX1roYNWqUsrKyzH0aU70OHjwY8EWd3iRQF0quqbmkU6cuKjr6Ru3efe1KAocjVA88EKvf/KZIzzwzUw5HqJYtm601a7YpOvrGbl88OZi1tVCyYcCAAT1a1Jk7d26LU6C8Xm+Lj6+oqGg07rQ0Lkkyp4gWFhbK4XCorKxMK1eu9DnPhkUdAAAAAG1joWQ/yMzMVGZmZqOfGYuSFhcXy+12Kz09XePHj9fWrVvNNSzS0tLk9Xq1e/fuZp+iS9KGDRv0xRdfaN++fY2mXkmSw+Ewp2CxYLK1vvOd72jx4sV699139bvf/U7/+I//GFAFHUmqrvYoIiJMDkfjOq/LNUT/8i9z5PX+r9LS3pMkLVgQ02zqFpobMGCA7rnnHq1bt07btm1Tenq6EhMTzYJOU8YVHT2xQPCkSZN04MABffbZZ+bPNmzY0GgdnoyMDHOsKC4u1gcffKBJkyaZU7Vyc3PNAlBZWZk2bNjQ4rG2bt2q8+fP+5yr0f5guQMiAAAA0JO4UqcHGdOvYmNjm91e3OFwaPny5Vq9erW5qKixAOmqVau0YsUKpaenm8Ugt9vd6BN1r9er06dP66uvvtLx48f12GOPNTv+pEmTtH79etssmBxsUlNTNXPmTA0aNMiSN6idWSj54MGTuu22EXI4Qlt8bMOij9s9mnV22jBlyhQlJSUpNjZWffr06XCccWWKcaVKd3K5XMrMzFRqaqqqqqokXbvyxuVymePKww8/3Gi6qLFdutaXMzMzlZCQIOnbq34kac6cOdq3b5+5bdmyZeZt1iXpBz/4gXJzc5WQkKAVK1aYi763hit1AAAAgI6jqNNDjCkIxp1pjGKNJK1YscK8qiY9Pd2cfjVlyhSFhoaquLjYvEVwcnKy+SbI4XDotttuM9flmTt3rmJjY/X973+/xRxcLpe2bt3qh9aiJcZ6JQ2n2PhTZxZKbng3q/j4sXr88bebxWRnP9hq0Qff+uEPf+hTnLH+jFF0aY/L5dKbb77Z6v+bFk9aGw8cDoc5lbOtuzKlpqY2K043jDf2IanRwsktTUNti9F+X9bjAQAAAHobijo9pKU3WK19Qu12u5tdSdPaG7C29gMYIiP7Kz39R21ub3inq4bc7tEqLn6+p1JDK2JiYvTee++pqKhIDz30kNXpWGbv3mvFxsmTJ1ucCQAAABD4WFMHAAJAXFycpGvr2Vy9etXibKxx9epV/eUvf5EkTZ061eJsAAAAgMBHUQcAAsDw4cM1duxY/fWvf9Xnn39udTqW+O///m95PB7dfPPNuummm6xOBwAAAAh4FHUAIEDcfvvtkr6dgtTbFBUVSZJiY2MtzgQAAACwB4o6ABAgjDtIffjhh/rmm28szsa/vvnmG23btk2SNH36dIuzAQAAAOyhb3t35unKnXusioW9dPZc27FPdjbWgjug+1Vbvw+7nKOeiL3ttts0fPhwHTt2TIWFhb2quFFYWKhjx45p+PDhmjBhQou/00A4R77GXr582fze0f1ZnTOxxBJLLLHEEksssYEf29fZxrvH2tpatbW9vQNbEQv76cy5tmOfpD8319rvw47nqDtjnU6nHnjgAf3f//t/lZOT06uKOjk5OZKu3Q79hhtuaLY9UM6Rr7FhYWHm947sLxByJpZYYoklllhiiSU28GOZfgUAAWT+/PkaOHCg9u/frwMHDlidjl8cOHBA+/fv18CBAzV//nyr0wEAAABsg6IOAAQQp9Ope++9V5KUlZVlcTb+YbTz3nvv5ao2AAAAoBMo6gBAgLn//vs1ePBg7d2715yWFKxycnK0d+9eDR48WPfff7/V6QAAAAC2QlEHAALMDTfcoLS0NEnXrmIpKSmxOKOeUVJSYl6lk5aW1uJaOgAAAABaR1EHAAJQYmKiHn74YV25ckXPP/+8qqurrU6pW1VXV+v555/XlStX9PDDDysxMdHqlAAAAADboagDAAHqiSee0Pjx41VVVaXly5fL4/FYnVK38Hg8Wr58uaqqqjR+/Hg98cQTVqcEAAAA2BJFHQAIUGFhYVqzZo0GDRqkPXv26JlnnlFdXZ3VaXVJbW2tnnnmGe3Zs0eDBw/WmjVrzNt9AwAAAOgcijoAEMBuuukmvfHGGxo6dKiKior05JNP6sKFC1an5ZMLFy7oqaeeUlFRkYYOHar169frpptusjotAAAAwLb6Wp0AgJb8naRrVzX4eovnyspKjRw50qfYrhy3K7FoWVRUlN544w0tXrxYJSUlSklJ0S9/+UsNGTLE6tQ67Ny5c3ryySd1+PBhjRw5Uq+99hoFHQAAAKCLuFIHAGxg5MiRev311xUVFaXDhw/roYce0ieffGJ1Wh3yySef6KGHHtLhw4fNAhUFHQAAAKDrKOoAgE0MHTpUr7/+upKSkvTVV1/p6aef1ssvvxyw6+zU1dXp5Zdf1tNPP62vvvpKiYmJev311zV06FCrUwMAAACCQlBMv3K73VanAAB+MXjwYL300kvauHGjNm7cqHfeeUeFhYVasmSJ7rzzTvXp08fqFPX111/r448/VkZGhioqKjRw4EAtXbpUM2fOZGoeAAAA0I1sfaXO5MmTrU4BXcQ5BHwze/Zsvf3225o2bZoqKir03HPP6f7779eWLVvk9Xotycnr9WrLli26//779dxzz6miokLTpk3T22+/rXnz5lmSEwAAABDMQk6ePFnfEzt2Op2qra21VWxX0N7Aj+0K2hv4sV1h9/b+6U9/0ttvv62ysjJJ0rBhwzR//nzNmjVL0dHRXd5/e44ePart27dry5YtOn36tCTJ5XLpwQcf1Pe+9z3zcb35/L7zzjt6++239eCDD+rHP/6xT/vz5bh2ie0K2hv4sV1BewM/titob+DHdgXtDfzYrqC9gRMbUl9f32pRx453z+ltdwuivR1He/1zXNrrn9im7f36669VUFCg9evXm8UdSbr11luVlJSkGTNmKCoqSiEhIT4dr6H6+nqVl5fro48+UkFBgQ4dOmRuc7lcSk5OVlJSUrOpYL35/GZnZysrK0spKSl6/PHH2421e3s7i/b657i01z+xtNc/x6W9/omlvf45Lu31T2ywtjco1tQBgN6uT58+mjNnjmbOnKldu3YpPz9fe/fu1aFDh3To0CG98sorcjqdcrlcGjdunG655RaNGTNGERERCg8PN7/CwsJ0+fJleTwe86uurk7l5eUqLS3VsWPHdOTIEV28eNE89oABAxQfH6/Zs2crISFBoaGhFv4mAAAAgN6Dog4ABJHQ0FDNmDFDM2bM0JUrV/Tpp59q586dKioqUkVFhQ4ePKiDBw926RghISGKiorS1KlTNWvWLE2ZMoVCDgAAAGABijoAEKT69eunhIQEJSQkSJI8Ho9KS0u1f/9+ffnllzp+/Lg8Ho8uXbpkfvd6vXI4HOrfv7/Cw8PN7zfffLPGjx+vqKgoxcTEKDw83OLWAQAAAKCoAwC9RHh4uGJiYhQdHd2leb0UdAAAAIDAYOtbmgMAAAAAAPRWFHUAAAAAAABsiKIOAAAAAACADVHUAQAAAAAAsCGKOgAAAAAAADZEUQcAAAAAAMCGKOoAAAAAAADYEEUdAAAAAAAAG6KoAwAAAAAAYEMhFy9erG9tY21trZxOpz/zsRTtDW60N7jR3uBm9/bm5OQoJydHixYt0qJFi9p9vN3b21m0N7jR3uBGe4Mb7Q1utDc49G2rUV1pNLHEEkssscQSey02LCzM/N6R/QVCzsQSSyyxxBJLLLHEBn4s068AAAAAAABsiKIOAAAAAACADVHUAQAAAAAAsKG+VicAAADsq76+Xr/73e+0bds2ffnllzp//rzVKfUqQ4YMkcvlUmxsrBYtWqTQ0FCrU/Ibo+/98Y9/1NGjR+l7fmb0vfHjxys1NdX2fY/+ZK2mY5nd0Z+s1dueGynqAAAAn9TX1+tHP/qRKisrrU6l1zp37pzOnTunoqIivffee/qv//ov9e0b/C/v6HvWa9j3PvroI1v3PfqT9ZqOZW+++abVKfmM/mS93vbcGLwtAwAAPWrTpk2qrKxU//799eyzzyouLk4jR460Oq1e5fTp09qzZ49efvllVVZW6le/+pWSk5OtTqvH0fesF0x9j/5kvab96a233tJTTz1ldVo+oT9ZL5jGp45gTR0AAOCTP/3pT5Kk5557Tn/7t3/Li1YLDBs2TPPnz9ezzz4rSSooKLA4I/+g71kvmPoe/cl6TfvTzp07Lc7Id/Qn6wXT+NQRFHUAAIBPjhw5Ikm64447LM4EcXFxkqRTp05ZnIl/0PcCRzD0PfpT4DD60+nTpy3OxHf0p8ARDONTRzD9CgB6CY/Ho9LSUu3fv19ffvmljh8/Lo/Ho0uXLpnfvV6vHA6H+vfvr/DwcPP7zTffrPHjxysqKkoxMTEKDw+3ujkIAOfOnZN07RMxWMv4JMqAKVUAACAASURBVLiurs7iTPyDvhc4gqHv0Z8Ch9Gf/vrXv1qcie/oT4EjGManjqCoAwBB6sqVK/r000+1c+dOFRUVqaKiQvX19e3GeTweeTwe80WJJO3fv1/vv/++JCkkJESjR4/W1KlTNWvWLE2ZMiXo7yoAAAAABCKKOgAQRK5evapdu3YpPz9fe/fuVW1trbnN6XTK5XJp3LhxuuWWWzRmzBhFREQoPDzc/AoLC9Ply5fNwo7H41FdXZ3Ky8tVWlqqY8eO6ciRIyovL1d5ebk2b96sAQMGKD4+XrNnz1ZCQgIFHgAAAMBPKOoAQBD4+uuvVVBQoPXr16usrMz8+a233qqkpCTNmDFDUVFRCgkJaXdfRoGnodjYWPPf9fX1Ki8v10cffaSCggIdOnRI+fn5ys/Pl8vlUnJyspKSktSnT5/uayAAAACAZijqAIDN7dixQ1lZWSotLZX07Yr/s2bNUnR0dLcfLyQkRGPGjNGjjz6qRx99VEePHtX27du1ZcsWlZWV6ec//7lycnKUkpKixMTEbj8+AAAAgGv6Nrw0vyXtbbcy9qmnnlJJSYnPx4D1Jk6cqFdeeaVTMYHcJ4kl1p+xR48e1UsvvaTi4mJJksvl0k9+8hPNnTtXDofD5/12VnR0tKKjo/XII48oPz9fv/71r1VaWqpnn31Wbrdb//zP/6yhQ4dKsufvuTtiL1++bH7v6P6szhn21dY5tGO/ok/ahy/nin6F1tixb9CvApdxbuzYN9qL7et0OtsMbmt7ewfu6VgKOvZXUlLSqX4S6H2SWGL9FZubm6uNGzfqwoULGj16tJYsWaI777zT0ilPDodD8+fP1z333KOPP/5YGRkZKi4uVnJyspYuXaqZM2fa7vfcXbFhYWHm947sLxByhn21dg7t2K/ok/bS2XNFv0Jb7NY36FeBzel02rJvdCQ2KKZfGZ9Sw17cbrfVKQC2c/78eb300ksqKCiQJP34xz/W4sWLFRERYXFm3+rTp49mzJihqVOn6rXXXtM777yjVatW6eOPP1ZaWpoGDx5sdYoAAABAUAiKog4A9AZnzpzR4sWLVV5erhtvvFFpaWmaPn261Wm1KiIiQs8995zi4uKUnp6uHTt2qKysTK+99po5HQsAAACA766zOgEAQPsqKyv12GOPqby8XOPGjdNbb70V0AWdhqZPn6633npL48aNU3l5uX7605/q5MmTVqcFAAAA2B5X6gAB6XeSpK5Myx050vfY9o5bVRWmESN+5PsB0Cnl5eVavHixzpw5o4kTJyojI0MDBw60Oq1OGTJkiLKysrRkyRKVlJToscce06uvvqoxY8ZYnRoAAABgW1ypA6DTqqr2qKrqPavT6BVOnjypn/70pzpz5oxiY2P1y1/+0nYFHcPAgQP1yiuvKDY2VmfOnFFycjJX7AAAAABdQFEHgE8o7PS8y5cva9myZaqurtYdd9yhtWvXBtSCyL5wOp1au3at7rjjDp0/f17Lli0zb/cNAAAAoHMo6gDwGYWdnvXqq6/qiy++0IgRI7R69WqFh4dbnVK3CA8P1+rVqzVixAh98cUXevXVV61OCQAAALAlijoAuoTCTs/YsWOHNm3apH79+unFF1/UoEGDrE6pWw0aNEgvvvii+vXrp02bNmnHjh1WpwQAAADYDkUdAF1GYad7nT17Vunp6ZKklJQUTZw40eKMesbEiROVkpIiSUpPT9fZs2ctzggAAACwF4o6ALoFhZ3u89vf/lbnz59XXFycFi1aZHU6PWrRokWKi4vT+fPn9dvf/tbqdAAAAABboagDoNtUVe1RdfWHVqdha7W1tfr9738vSeZVLMHOaOfvf/971dbWWpwNAAAAYB8UdQB0q7Nni7hipwu2bNmiCxcuKCYmRpMnT7Y6Hb+YPHmyYmJidOHCBW3ZssXqdAAAAADboKgDoNsxFcs3ly9f1rvvvitJQT/tqimjve+++y63OAcAAAA6qG97l7p35VJ4q2JhL50913bsk52NdTp9PlTAqKrao6tXr2rQoLs6FWeXc9QTsbt371ZlZaXGjh2rhIQEn/dpRwkJCRo7dqyOHTumjz76qMX2B8I58jXWKFRdvny5w/uzOmfYV1vn0I79ij5pH76cK/oVWmPHvkG/ClzGubFj32gvtq+zjXePtbW1amt7ewe2Ihb205lzbcc+2Zv789mzRQoNDdWIET/q0OPteI66M/bPf/6zJOmuu+7Sddf1rgspr7vuOs2ePVtZWVkqKirS3LlzG20PlHPka2xYWJj5vSP7C4ScYV+tnUM79iv6pL109lzRr9AWu/UN+lVgczqdtuwbHYntXe8aAPgdU7E6zijqxMXFWZyJNWJjYyVJRUVFFmcCAAAA2ANFHQA9jsJO+06dOqVjx47p+uuv19/8zd9YnY4lvvvd7yo8PFzHjx/XyZMnrU4HAAAACHgUdQD4BYWdtu3du1eS5Ha7FRoaanE21ggNDdWUKVMkSZ9++qnF2QAAAACBj6KOxYqLi+V2u5WZmWn+zOv1Ki0tTcXFxY0em5mZqby8PH+nCBuqqbmkhQvflNv9YqtfaWnvyeu92uY+0tLeU03NpW7Li8JO6/bv3y/p2ylIvZUx9ezAgQMWZwIAAAAEvr5WJxDMvF6vVq9erfz8/FYfs2jRombFm6qqKkVERGjChAmNfn733Xdr5cqVmjRpklwuV5vHmThxotatW6fIyMhuag188Yc//EH9+/fXnXfeqT59+vj12KNGRWrdur9TZGT/Zttqai5p06a9Pu/79ttv70JmwX276j/84Q8aMmSIYmNjO3XOa2pqJEkjRozocExxcbEef/xxjRgxQs8//7yys7P1wgsvyOVyKS8vTxUVFUpNTW1zH8b4sWDBArnd7g4fu6cY7Td+H/CPJ554QiNHjlRKSoptF3ksLi5Wbm6uli9fLofD0anYhs+jixYt0ujRozv094Ou83XM9IdAGx/bY7d8e0Ig9KeeOg95eXnat2+fT2OcP3X09YcdBEJ/6qy2ngsb9iFJvX68CCYUdXqQw+FQenq60tPTJV37Q1q1apWys7Pb/OPZunWr7rrrLnm9XqWkpKikpKTR9vvuu8/894oVKzRnzhzz3/PmzZN07aqeNWvWBPzAH+z+8pe/KDc3VwMGDNAPfvADJSUladq0aerXr5/VqTWSmblDOTl/anFbfv7/NPvZokXfU2pqYk+nZUu+nvOLFy9KkgYOHNih49TU1CgjI8McT8rKyrqce0/o7ItQo/3G7wP+8fnnn2vfvn3asmWLrr/+ek2fPl3PPvusBg8ebHVqfvHBBx9IkgoLC+VwOLgq1o/s8jzZ0+zyhj3QBVN/Mq7iD4biiF0FU39CcKOo4wfGp+krVqxodFWOUcmXZD6Jl5WVqa6uTtHR0VqzZo2WLFkit9vd5pO91+ttdsz4+Hjl5ub2bMPQYRcvXtT777+v999/XxEREfr+97+v2bNnKy4uTv37N7+Sxt9SUxObFWlqai5pzZptWrZsdotX+6BtnT3ntbW1kqQBAwZ0aP/V1dWqr68333S7XC69+eab3dcAixjtN34f8L+//vWvys/PV35+vhwOhxISEvT0009r5MiRVqfWYyoqKjR8+HDeTFuotTFzwoQJtr16DNYJ9Nddvpg3b5754S38K1j6U8M+1NL7R9gXa+r0sLy8PD3++OOSpFWrVsntdptfCQkJWrBggdLT080XksZVOtXV1ZoxY4b5Cfz27du1bNky8xPEtj5F9Hq9ys3N1bRp03iBGoDq6uqUn5+vZ599VnfddZd+9rOfadu2bfrrX/9qdWroIa2dc4/HYz6mM1fqFBcX67777tNnn32m++67T2lpafriiy/0yCOPtHrFTk1NjRYuXGiOP03HEGMtr9a25+XlmdsWLlzYaHpUWVmZ7r77bnO7UbzOzMzUqlWrlJ+fr4SEhA5d/cCVOoHF6/Vq+/btuueeexQfH6+lS5eqvLzc6rQ6JDMzU3fffbf5N9FSHzb6fU5OjnJychr1X4PxmIb9PjMz09xXWloaL467WcMx82//9m8D6nnSWAvR+Gq4JqLUeDy8++67VVBQoCVLlph9p2G8EdvaWNna2NrafgxNx/Omfbq3aek5+KOPPupyf2rvebWhtp5DG27Ly8trdVzKy8trNt40HIuM4zc8/w3HQKlxv2m6rbX2GPsrKCjQwoULm42frfWzhu1q2kftzG6v4xs+F7bUh9p6/ddWH8/LyzPXe23tb4DnSv/hSp0e1rSqbly1k52drejo6EZFl5qaGhUVFSknJ0dz587V8uXLVVNTo7Vr1+qZZ54x18eZM2eO1q5d22xtnVWrVmnVqlWSpLlz55rTsgJdb57H6fF4tH37dm3fvl1hYWGKi4vT7Nmz9f3vezVgQNcKcidO1GjWrHWtbp8797ZG/29tClbT6VcrVvxQ8+ZN6lJunPPm5/zChQuSOlbUcbvd2rx5s1auXGmuodPW9KuamhotXbpUCxYs0MaNG83/jxo1yly769/+7d+UmZmp9PR0lZWVKTU1VaNGjTKfpHNzc7V9+3ZFRkYqLy/PnN4pXbtz1+bNm82ic0ZGhtatW6fU1FSNHj3a5+lXwdhPsrKylJWVZXUaPrl8+bJ27dqlXbt2qV+/foqJibE6pVZlZmbq1KlTZr8sKyvT9ddfr+LiYvMq2U2bNik1NVXp6ekaPny4pG+nOZw4cULSt1fUDh8+3JxKXVxcrPj4eKWmppp/Sx988EFAfYJu/O00fJMV6D9rzaVLl1ocM61QXFyslStXavPmzXK5XGb/yMzMNPvDL37xCyUnJ2vevHnmdmN8Lysr07p168z4//mf/zHH26ZjpdfrbXVsra6ubnE/xppkDcfzzMxM5ebmasKECX75oC/Qx+2Gz8Evvviiz/2pI8+rhrbGH2P9E+P5tbCwUF6vt81xSWp8tb8xbbSwsFA1NTXatGmThg8fbh5v165dcrlczfpvcXGxfvGLX5hrcObn55v/Nh47adIks19t2rTJ3F5TU6OUlBTFxsaaf8cFBQXmm/acnBxzhoKxr7vvvrvR+5aOsFN/CgsLk9vt1v/5P//H6rRMTZ8LDx482Owxbb3+a61PGOexpfNsbLfDc2UwoajjB00XYDQGP2NANKZYRUZGmk8MDodDDodD69evV2FhoQoLC5vtt66uznxTJTVeUycvL08pKSkslmxD9fX13bKfzi6U3HQKVmbmDsXHj5XbPbpb8kHruuuct2bnzp0aNWqUWeiNjIxUbGysTpw4Yb74TE5ONp+kXS6X5syZo927dys6Olq5ublasmSJOZZMmjRJ27dvl9frVWRkpB544AHzWMY2BL9vvvnG6hRatGXLFhUVFWndunXmm1iXy2X2b4fDoWnTpqmioqLdfa1fv17Stb8PQ8M3GcbfEvyrp8fMlhhXQTccKx0Ohx577DGtXbtWNTU1Onr0aKOx1uFwaMGCBcrIyDD3c/78eZ0/f14ul0u33XZbi8cyYtsaW1vaj/GGumGOd999t9auXSuv18vV263wpT915HnV0N74c+7cOVVXVysyMlIJCQkdOn5VVZVqa2u1atUq87w2jD116pR5zpOSklrsv9HR0Ro4cKB57Ib9LTo6WmPHjm10zAULFpivA4y+3nBsTEpKMv/d8MPlCRMmaPLkyWZ/DXZWjE8taem5sCWtvf5zu93t9om2zjPPlf5FUaeHGYsjG4xLKRsy1tuZN2+eeSWPITs7W8nJyVq7dq0eeOABnT9/Xrt371Zqaqry8vL0wQcftHhFzpw5c7Rv3z4dPXo04KvcnbksuLa21ue59ZWVlT6vCeHrcdPT09tc2yg8PFzx8fFKSkpSfHy8rr/++v9/y+98yrMrjCLO7t3HFB8/VsnJCVq79o8aPPh6uVxD5PVe1erV/08LFsR0udDT2jm32/ltKbYz53zSpEkaNmyYpGufpnz11Ve6cOGChg4d6lMubTHWSGlo0aJF5r9HjRrVaJtx9x9Dw3FJunaXqurqajkcjmZ33zO2+VJQNj7RHjBgQKN9Bsr59TU2OztbWVlZSklJafa7bIm/25uYmNjuOkYOh0OxsbH6p3/6J0VFRUkKvE9RjX6enZ3dqP8Znz5WVVWZP5s7d26bb3RzcnI0YsQIZWZmNnpM0+dpqfHfUiBoaYwtLi5udo5be1x3x1ZWVrb7uNb0799fCQkJzZ4nV6xY0eF9dKemY6V07UO66upqnThxotnaTIMHDzavQHS5XHrhhRfM/tPww7imWrqzqTG2treflnL0l85O9eru8bmjz8EJCQmaNWtWl/pTe8+rhrbGH7fbreTkZPMmKO3dTMVw/vx5OZ3OFsev5ORkrV69WgkJCebdcI3HNbyq37Bw4UK5XC5lZmY2e4+ycOFC80qdhv2qpb7eUHetUebr1MHuej3Z2dfx33zzjZxOp2Xjk6G158KWtPX6r7U+YRSB2jrPdniuDCYUdXpYS4uaZWZmKj4+3hy0jSfuUaNGaffu3ebUK+OPxOv1KiIiQoMGDdL58+cb7dvY3pTX6210mSYCRyAusFZTc0mnTl1UdPSN2r37mCTJ4QjVAw/E6je/KdIzz8yUwxGqZctma82abYqOvpHFkzuhtXPe8E3SgAEDerSo03RcMbQ2v7miokKjR39bvGvthaYxf9q4/LusrEwrV670Oc+GRR1Yz24LJc+dO1c//OEPtXLlSmVmZppTZF5//XVzSoz07Z2G2mLc2rzh9ISmd52TFFRrRQSKpgsl33jjjVanZDpx4kSzsTAyMlKDBg2S1PgKCenam29jXJNkrj3SdJpDU03vyNZ0bG1pP02vEME1LT0H19bWNvggzTcdeV7tyPhjvFcwpq8YY1d7Tpw40WJhuuHdd4274S5btkxS64XE4uJiFRUVmdPAjOkybWna13uLtl7HB8pNHlp6Luwo4/WfL33CwHOl/7FQsh+UlZW1uIBpcXGx0tLSJF2rBLvdbnN+v9fr1cKFC1VcXKyqqirV1dU1GzTLysq0YcOGFo+5c+dOSdculYP1BgwYoHvuuUfr1q3Ttm3blJ6ersTExIAo6EhSdbVHERFhcjga13ldriH6l3+ZI6/3f5WW9p4kacGCmGZTt9BcZ8+58YlSTywQPGnSJB04cECfffaZ+bMNGzY0GpMyMjIaLeT5wQcfaNKkSeYls7m5ueYL1bbGnq1btzYqPneW0X7udmOd66+/XnPnztW2bdtUWFiof//3f7dFQcdgfPKdmpra4lpTNTU1Hb475Lx58xQbG6ulS5c2WtjUUFZWZr75Rte0NmYGyhtGYyrV+vXrzX5lvGGfNWuWIiMjm421xhsbg7HuhHTtqpvJkyd3+PgNx9au7Ke36OnXXR15Xm1J0/GnoKDAjGlpektrJkyYoFGjRmnTpk3mzwoLC3X69Gn95je/MZ+v4+PjJX077Ss3N9ccy2pqapSZmdnihzs7d+5USUlJq8f/wQ9+oBMnTjQa/xquqRNsAv11fEvaey40tPb6r6n2+kRbeK7seX2bXhLbVHvbW+N0Oi2JDTR5eXlav359i1VSo3KZkJBgVs4bVkGNxfCMxVCbvrA5f/58o5XWG15SaVxuaYf1dDpzrrvaN/zdJ8eMGaOXX35Z3/nOd9SnTx9J0tmzZ9uN6473T51ZKPngwZO67bYRcjhCW3xsw6KP2z26y9OvWvtd2u38thQ7ZswYrV69Wt/97nfbPecNY/v16ydJjT7R7S7GZdUNL//Ozs42r2KQpIcfflhLly41n7CN7dK1RRozMzPN+frGp5PSt1M9jW3Lli0zb7MuXXvhl5ub22ica4vR/n79+jU7J4Fwfn2NNT69q62t7fD+/Jnz2LFjNWzYMD3zzDP63//9X0nX3rDa9bnY6Gf33XefsrOz9dhjjyk1NVWrVq3SxIkT9YMf/EBHjx7t0L6M/v+Tn/xEmZmZWrJkiXlJ+dy5czu8BoY/9cQY21Pjc3tjZiC9JnS73XrhhRfMqTJS4ysfmk6LmjhxopYsWaKNGzdKuvZGfPXq1eb2RYsWma8Fm46VbY2tre0nEN5Qd/ZcdXef7OhzcFf7VUeeV6Vv111qbfwxisbGc++KFSsarYeUmpqqnJwcZWdnNzq+w+HQ8uXLtXr1arMPrVixQgkJCRo3bpzZbxpOITX66axZsySp0dQst9ut2NhYc9uTTz6piRMnttr+yMhIrVu3TkuXLjXfe2RnZ3d7Edbq8aozr+m647jdrelzYUtae/3ncrk61ScaioyMDMjnSuPcWP2asCdiQ+rbWM0p0Ncw6MzdE6xgXGbWcNXvkpKSZgUXY/rVXXfdpQ8//FDLli1TZGSkMjMzzQWujMc23I/U8bm3gciX8xcMa650TNfW1KmpuaQ1a7Zp2bLZbS6UnJyc0KyQU1xcoccff7tZTHb2g924aPLftfjT3nN+m8e+8MILeu+99/RP//RPeuihh3zaXzB466239J//+Z/60Y9+1Giqgd3Pb6CvqeNrbKA/D/c27Z0Pq/4WeqI/26XvGXc36ugdAO3K1/MRCOOzZJ/+1Ft09XxYPV7RnwJLw/Nhl9dXnY1lTZ0eZNyCUJJ5Z6uWGHNfpWuf1LQU35H9AIbIyP5KT/9Rm9sb3umqIbd7tIqLn++p1NCKmJgYvffeeyoqKurVRZ29e69N7WM6AQC7MW4nnZycLIfDYU6/WrBgQVAXdAAA1qKoAwABIC4uTtK1TxGuXr2q0NCWp8IFs6tXr+ovf/mLJGnq1KkWZwMAnRMZGWneWcnQkWmnAAB0BUUdAAgAw4cP19ixY3Xs2DF9/vnnLS5SF+z++7//Wx6PRzfffLNuuukmq9MBgE4z7koFAIC/cPcrAAgQt99+u6RvpyD1NkVFRZKuLRwJAAAAoH0UdQAgQBiX7H/44Yf65ptvLM7Gv7755htt27ZNkjR9+nSLswEAAADsgaIOAASIuLg4jRw5UseOHVNhYaHV6fhVYWGhjh07ppEjR+p73/ue1ekAAAAAtkBRBwACRFhYmP7+7/9ekpSTk2NxNv5ltPfv//7vFRYWZnE2AAAAgD1Q1AGAADJ//nwNHDhQ+/fv14EDB6xOxy8OHDig/fv3a+DAgZo/f77V6QAAAAC2QVEHAAKI0+nUvffeK0nKysqyOBv/MNp57733yul0WpwNAAAAYB8UdQAgwNx///0aPHiw9u7dG/TTsHJycrR3714NHjxY999/v9XpAAAAALZCUQcAAswNN9ygtLQ0SdeuYikpKbE4o55RUlJiXqWTlpamG264weKMAAAAAHuhqAMAASgxMVEPP/ywrly5oueff17V1dVWp9Stqqur9fzzz+vKlSt6+OGHlZiYaHVKAAAAgO1Q1AGAAPXEE09o/Pjxqqqq0vLly+XxeKxOqVt4PB4tX75cVVVVGj9+vJ544gmrUwIAAABsqW9tbW2bD2hveyDGwl46e67t2Cc7Gxvsa8W29fuwyznyV+wvfvELPfHEE9qzZ4+eeeYZ/cd//IciIiJ8Pp7Vamtr9dxzz6moqEiDBg3SL37xC125ckVXrlzpUGxXjmtl7OXLl83vHd2f1TnDvhhjYRVfzhX9Cq2xY9+gXwUu49zYsW+0F9u3rTuN1NbW+nwnEqtiYT+dOdd27JP05+Za+33Y8Rz1dKzT6dSGDRu0ePFiFRUV6cknn1RGRoYGDhzo0zGtdOHCBS1ZskQlJSUaOnSoXn31VY0ZM6ZDsYF8jjoSGxYWZn7vyP4CIWfYF2MsrNLZc0W/Qlvs1jfoV4HN6XTasm90JLavT3sG0MP+TlLXBoDKykqNHDnSp1ie0AJLVFSU3njjDS1evFglJSVKSUnRL3/5Sw0ZMsTq1Drs3LlzevLJJ3X48GGNHDlSr732mm666Sar0wIAAABsjTV1AMAGRo4cqddff11RUVE6fPiwHnroIX3yySdWp9Uhn3zyiR566CEdPnzYLFBR0AEAAAC6jqIOANjE0KFD9frrryspKUlfffWVnn76ab388suqq6uzOrUW1dXV6eWXX9bTTz+tr776SomJiXr99dc1dOhQq1MDAAAAgkJQTL9yu91WpwAAfjF48GC99NJL2rhxozZu3Kh33nlHhYWFWrJkie6880716dPH6hT19ddf6+OPP1ZGRoYqKio0cOBALV26VDNnzmRqHgAAANCNbH2lzuTJk61OAV3EOQR8M3v2bL399tuaNm2aKioq9Nxzz+n+++/Xli1b5PV6LcnJ6/Vqy5Ytuv/++/Xcc8+poqJC06ZN09tvv6158+ZZkhMAAAAQzGx9pc6GDRua/ay3LSzb29oL4FvDhw/Xq6++qh07digrK0ulpaVavXq1srOzNX/+fM2aNUvR0dE9nsfRo0e1fft2bdmyRadPn5Yk3XLLLUpJSVFiYmKPHx8AAADorWxd1AEASImJiZo+fboKCgq0fv16lZWVKSsrS1lZWbr11luVlJSkGTNmKCoqSiEhIV0+Xn19vcrLy/XRRx+poKBAhw4dMre5XC4lJycrKSkpIKaCAQAAAMGMog4ABIE+ffpozpw5mjlzpnbt2qX8/Hzt3btXhw4d0qFDh/TKK6/I6XTK5XJp3LhxuuWWWzRmzBhFREQoPDzc/AoLC9Ply5fl8XjMr7q6OpWXl6u0tFTHjh3TkSNHdPHiRfPYAwYMUHx8vGbPnq2EhASFhoZa+JsAAAAAeg+KOgAQREJDQzVjxgzNmDFDV65c0aeffqqdO3eqqKhIFRUVOnjwoA4ePNilY4SEhCgqKkpTp07VrFmzNGXKFAo5AAAAgAUo6gBAkOrXr58SEhKUkJAgSfJ4PCotLdX+/fv15Zdf6vjx4/J4PLp06ZL53ev1yuFwqH///goPDze/33zzzRo/fryioqIUExOj8PBwi1sHAAAAgKIOAPQS4eHhiomJUXR0dJcWOqegA8OQIUN07tw5nT59WsOGUHwx3QAAIABJREFUDbM6nV6tsrJSknT99ddbnIl/0PcCRzD0PfpT4DD6k51fa9CfAkcwjE8dYetbmgMAAOu4XC5J0p49eyzOBHv37pV07a54vQF9L3AEQ9+jPwUOoz/ZuRhCfwocwTA+dQRFHQAA4JPY2FhJ0ssvv6z/+q//Mj8Rg/+cPn1aW7Zs0X/8x39Ikr73ve9ZnJF/0PesF0x9j/5kvab9yTgndkR/sl4wjU8dEXLx4sX61jbW1tb6fIm+HdHe4EZ7gxvtDW52b29OTo5ycnK0aNEiLVq0qN3H26W9V69e1cMPP6xTp05ZnQp07ZPIjRs3KiwszOpUGumJ/kzfCyyB2vc6iv4UWKzsT90xXtGfAkvD/mSX11ed1betRnWl0cQSSyyxxBJL7LVY44VpWFhYh/YXCDl3VF5enn71q1/pww8/1JkzZ1RXV+fTseGbiIgIDRs2TG63W0899VSb6wbYqV91JNboewUFBTp16hR9z8+Mvnfrrbfqn//5n31asyKQ+hX9yVpNx7JvvvkmYPqGL7H0J2u19twYCH2jJ2JZKBkAAPisb9++Sk5O1gMPPODzC5bKykqNHDnSp9jueKHkdrslScXFxX45rlXtDTZG30tOTm5xu1UvwDtzfj///HPV1NTojjvu6PJxrWxvMCxC2l5/Mlg9Xvk71sr22llH+5OhN55fK2KDFWvqAAAAABbYtWuXPvjgA6vTAADYGFfqAAAAABbYunWrvF6v1WkAAGyMK3UAAAAAPzt69KhOnDihs2fPdmrqHwAADVHUAQAAAPyssLDQ/DdTsAAAvqKoAwAAAPjZ1q1bzX/v3r3bwkwAAHZGUQcAAADwo/Lych09etT8f1VVlUpKSizMCABgVxR1AAAAAD/as2dPs5/l5+dbkAkAwO4o6gAAAAB+1HDqlaHhGjsAAHQURR0AAADATyorK/X55583+3lFRYWOHDliQUYAADujqAMAAAD4yd69e1vd9sc//tGPmQAAggFFHQAAAMBP3n///Va3tbTWDgAAbaGoAwAAAPjB6dOndeDAgVa3l5WV6csvv/RjRgAAu+tbW1vb5gPa204sscQSSyyxxLYde/nyZfN7R/dndc69Mbaz+wmEnIm1V+yuXbvajX3vvff06KOPdutxiSWWWGKJDd7Yvk6ns83gtra3d2BiiSWWWGKJJVYKCwszv3dkf4GQc2+M7cx+AiVnYu0Ve++99+ree+81/+92uyVJxcXFPXpcYoklllhigze2r097BgDYjsfjUWlpqfbv368vv/xSx48fl8fj0aVLl8zvXq9XDodD/fv3V3h4uPn95ptv1vjx4xUVFaWYmBiFh4db3RwAAACg16OoAwBB6sqVK/r000+1c+dOFRUVqaKiQvX19e3GeTweeTwenTt3zvzZ/v37zcU9Q0JCNHr0aE2dOlWzZs3SlClTFBoa2mPtAAAAANAyijoAEESuXr2qXbt2KT8/X3v37m00B9fpdMrlcmncuHG65ZZbNGbMGEVERCg8PNz8CgsL0+XLl83CjsfjUV1dncrLy1VaWqpjx47pyJEjKi8vV3l5uTZv3qwBAwYoPj5es2fPVkJCAgUeAAAAwE8o6gBAEPj6669VUFCg9evXq6yszPz5rbfeqqSkJM2YMUNRUVEKCQlpd19Ggaeh2NhY89/19fUqLy/XRx99pIKCAh06dEj5+fnKz8+Xy+VScnKykpKS1KdPn+5rIAAAAIBmKOoAgM3t2LFDWVlZKi0tlSQNGzZM8+fP16xZsxQdHd3txwsJCdGYMWP06KOP6tFHH9XRo0e1fft2bdmyRWVlZfr5z3+unJwcpaSkKDExsduPDwAAAOAaWxd1/uEf/kEHDhywOg10weTJk7Vhwwar0wBs6dSpU3rhhRe0b98+SZLL5dJPfvITzZ07Vw6Hw295REdHKzo6Wo888ojy8/P161//WqWlpXr22Wc1bdo0rVy5UsOHD/dbPgAAAEBvYeuiDgUd++McAr7Ztm2bNm7cqAsXLmj06NFasmSJ7rzzTkunPDkcDs2fP1/33HOPPv74Y2VkZGjfvn168MEHtXTpUs2cOdOy3AAAAIBgZOuijqG4uNjqFOADt9ttdQqA7Zw/f14vvfSSCgoKJEk//vGPtXjxYkVERFic2bf69OmjGTNmaOrUqXrttdf0zv/X3v0HR1Xf+x9/oQSWwMICFpOA4JICtk0B3ZVAIiX85ttWo5FbbBXJVANYG9ARZrw3Ayo01hZax6yO8kNKpOIvDFllOkChBSnFYFaBklsHhUgMCaCQhaW4wGi+f3B3TUISkt1kz57N8zHjQHb3dc77nbMk5p3zOee117RkyRK99957ysvLU58+fYwuEQAAAIgJMTHUAYCO4OTJk5o7d66OHj2q73znO8rLy9PYsWONLqtJPXr00IIFC5Samqr8/Hzt2LFD5eXleumll9SvXz+jywMAAABM7xqjCwAAXF1VVZUefPBBHT16VEOGDNGrr74a1QOdusaOHatXX31VQ4YM0dGjR/XAAw/o2LFjRpcFAAAAmB5n6gBR762QUklJoe/Ram35a6uruyox8Y7Qd4arOnr0qObOnauTJ08qJSVFBQUF6tWrl9FltUrfvn21YsUKzZs3TwcPHtSDDz6oF198UTfeeKPRpQEAAACmxZk6AMJSXb1H1dXvGF1GzDp27JgeeOABnTx5Uk6nUy+88ILpBjoBvXr10vPPPy+n06mTJ08qJyeHM3YAAACAMDDUARA2Bjvt48KFC1q4cKFqamo0ZswYPfvss1F1QeRQWK1WPfvssxozZoxOnz6thQsX6sKFC0aXBQAAAJhSp2PHjtW2x4atVqt8Pl+7Zm+//XZJ3P3KrAJ3v3r33XdbnAnnfRWOSLyfm8parZtDykbKhx9+GPx7r14j1K/fTwz5XIXDyOPbXHbNmjXauHGjEhMTtW7dOvXu3Tuk/USjmpoazZw5U9XV1brrrrv0y1/+st32FQ3H97XXXtP69ev1i1/8Qj//+c9D2l4o+zVLNhxtUXPg/yf4ftQ+2XDEer8N33ux3m9b7pd+I5MNB/1GfzYc9Bs92c5JzVx4o6qqSs093xyfz2dIFubTmmMdznvDjO9nI75ghePMmf2Ki4vTwIF3h5TviMe3qeyOHTu0ceNGdenSRc8880xMDXQkqXfv3nrmmWeUk5OjjRs36rbbblNGRkaTrzf78bX+34WqrFZri7Zn9n5bK1r65ftR+2Tp9+oCr+8o/bbFfuk3Mln6jcx+6Tcy2Vjtl+VXANrUl1+WshQrTF9++aXy8/MlSXPmzFFKSorBFbWPlJQUzZkzR5KUn5+vL7/80uCKAAAAAHNhqAOgzXGNnfC88cYbOn36tFJTU5WdnW10Oe0qOztbqampOn36tN544w2jywEAAABMhaEOgHbBYCc0Pp9Pb7/9tiQFz2KJdYE+3377bdMtOQQAAACMxFAHQLthsNN6xcXFOnPmjEaOHKkRI0YYXU5EjBgxQiNHjtSZM2dUXFxsdDkAAACAaTDUAdCuGOy03IULF/Tmm29KUswvu2oo0O+bb77JLc4BAACAFmKoA6DdMdhpmZKSElVVVWnw4MFKT083upyISk9P1+DBg1VVVaX333/f6HIAAAAAU2CoAyAiGOxc3e7duyVJU6ZM0TXXdKwvz9dcc40mT54sSdq1a5fB1QAAAADm0LF+agBgKAY7zfvwww8lSampqQZXYgyn0ylJKi0tNbgSAAAAwBwY6gCIKAY7jTt+/LiOHDmi7t2763vf+57R5Rjihz/8oeLj4/X555/r2LFjRpcDAAAARD2GOgAijsHOlUpKSiRJDodDcXFxBldjjLi4ON18882SpA8++MDgagAAAIDox1DHYG63Ww6HQ263O/iY1+vVvHnzVF5eHnzM7/crLy9PHo/HiDJhYm73ATkczzT7n8dTcdVtuN0H2rQuBjv17du3T9K3S5A6qsDSs/379xtcCQAAABD9OhtdQCzzer2aP3++Dh482ORrFi9efMWg5vDhwxoyZIjsdnvwMYvFoqysLBUUFOi5556TzWa7Ylt+v19Lly7V5s2bJUmJiYlyuVz1tgPjFBYWavz48Ro4cGDE97148Y+VmTm80efCHdbccsstYaRj79bVe/bs0cWLFzVmzBh16dKlxTmv1yvp8r/blvJ4PJo9e7YSExP1+OOPa+XKlXrqqadkt9vldrtVUVGh3NzcZrcR+LqRlZUlh8PR4n23l0D/gc8HAAAAgKYx1GlHNptNhYWFwY9dLpe2bNnS7KDF7/dr69atuueee1ReXq7c3FxVV1fXe83EiRODf1+5cqUcDkfwtTk5OcrPz5d0+YeidevWKScnRxaLpR06RGsUFBSooKBAQ4cO1YQJEzRhwgQlJycbXVY95eWnlJv7pqqrzzT6/JIlf6n3cWJiL7lcP5Pd3jcS5ZlCVVWVnn76aVksFv3oRz/S5MmTlZaWdtV/g2fPnpUk9erVq0X78Xq9KigoqPc1IBq53W7t3btXixYtatHXoUD/gc8HAAAAgKZ19vl8zb7gas9HYzbauN1uLVmyRCtXrqz3W/PAmTxOpzP4eFlZmXr06KHevXtr8eLFwQGQy+WSpEZ/6+71evXkk08qJydHmZmZwcdtNttVf0sfDVp7rM34nqybPXTokA4dOqSXXnpJN954o8aOHauxY8dq6NChIW+/rdjtfbVp00NXPB44m6eps33C0fDzGg3HKJys3+8P/rl161Zt3bpVXbt21ejRozVu3DiNHj1a8fHxV2TPnLk8SOvZs2eL9llTU6Pa2lr16dNHkmS32/XKK6+E3EO0CPR/5syZmHpvXLhwIfhnS7dndM0dMdvRvh+RjZ5sOO/DcPZLlixZsmTNn+1stVqbDTf3/NV2bEQ22rhcLq1du1aSNHv27HrPNVweVfcsncOHD2vWrFmy2+3yeDw6fvy4Fi1aFNxmWlpacKnE4cOHJUnjxo2LVFttqjXH2ozvyeayn332mT777DOtW7dON9xwQ/AMnpSUlGA21tX93ETjMWpttrGzUS5cuKCdO3dq586dwQHP5MmTNWLECCUlJUmSzp07J6llZ+oEll1J0vTp0zVt2jTdf//9ys/PDy6/aqjhctDFixfXGwIHrtsVWL7Z8PnAcFqSUlJS6i0DbXhWYeDsobpf/zZv3nzFNhsT6P/cuXMx9d7o2rVr8M+WbC8aau6I2Y78/YissdnA681UM1myZMmSjY4sy6/aWW5ubr2zZdxut1atWiWXy6XevXvX+wGwurpau3fv1oYNG5Sdna3c3FyVl5ersLBQS5YsCb525syZWrZsmZKTk2Wz2VRZWSmn09nodXbMIBqu4xENPv/8cxUWFqqwsFAJCQmaMGGCRo8erfT08Le9ZMlfrlg6VdfKlb8I/r25JVh1t5GSkqTnnvsv2Wzdwqqtox3/ugOeLl26yOl0asqUKa1afuVwOLRhwwY98cQTwSFOc8uvAgOdrKwsFRYWBj8eMGCAfvCDH0iSfvvb38rlcik/Pz84pBkwYEDwQu5FRUXavn27bDab3G63li1bFhw0l5SUaMOGDbJYLHK73cFrf+Xm5mrgwIEhL7/qaO8NAAAAoLUY6kRA3d+QL168WJs2bZJ0+bfbdX8os9vt2rRpk6qrq5WYmCi/36/Vq1dr9+7d9a6jE5CQkGCK5VUwXmsulNxwCVZ5+Sm9/nqpHn10giyWjnmrbbPbuXOnBgwYoKlTp0q6vDTT6XSqsrIyONTJyckJnuFjt9s1depU/fOf/1RycrKKioo0b9684OB4+PDh2r59u/x+v2w2m+65557gvgLP4UpWq1WDBw82ugwAAADEEIY67azu8gNJWrJkSXAJQ8D06dODyxXqLnEILM9auHChli1bpoULF2rnzp2SpMzMTLlcLnk8Hg0YMEB79+6V3+835QWRW3Ob9nBOXauqqgoudWmttjhl7mpnHTS9/KoqpP2GKjDEycwcLrf7gB59dIKmTPmeVq3ardzcDEmSx1OhoqJ9WrTo/4U96Kl7/M18fAPefvttPf30002+vkuXLhozZswVy69eeOEFffHFFzpz5oz69esXUi3N2bx5c3BpVUB2dnbw7wMGDKj33MCBA1VR8e2t7htbPlpTUyOLxVLvrnt1nwvl7MG61xaqu81oOb6RygIAAAAtwVCnnTVcfuX3+/Xss8/qnnvuCf5W3Ov1avHixerRo4f27t0bXHoV4PV6lZCQcMXAJvAar9eryspKlZWVsVzBZAYPHqzx48drwoQJuummm4wuR5J04MAxff/7ierW7dvbcTscA/XPfx6Rx1Mhh2OgHI6Bqqz0asuWf7fLxZNjjcViUXp6uiZNmqT09HR1795dUv1rJvXs2bNdhzrTpk1rdAlU4MLODVVUVGjgwIHBjwOD54bcbrckaffu3bJYLMEzEEPV2gtGAwAAAB3ZNUYX0BF4PB7NmjVLXq+33uNut1sul0s2m00FBQUaNmyY8vPzg9fSuf/++1VeXh68EHLDH8Y8Ho/cbrdsNpuysrI0e/bsemc9eL1euVyuJn9ogzGGDh2quXPn6s0339Rbb72lX/3qV1Ez0JGkiorTGjDgyjMscnMz5HAMlNt9QG73AU2d+j397/9Wq7z8lAFVRj+LxaIpU6Zo2bJl2r59u37/+99rypQpwYFOQ4EzOtrjVt7Dhw/X/v37VVZWFnxszZo19a7DU1BQEPwa5fF4tGXLFg0fPjy4VKuoqCj4taS8vFxr1qxpdF+bNm3S6dOnQ6410D9nuAAAAABXx5k67czlcqm0tDR4p5i6A5bMzEy53W45HI7gb8EDFygdMWKEVq5cqbKysuBFRxuqrKyst63hw4fXuwNN4A41ZlySFYtyc3M1YcKEemc/REpLL5Ts9X6l48fPKjn5O6qpOd/oaysqTistbbAsljj9939PbZd6zSwxMVF//OMflZaWpri4li9Nq3sr77Zmt9vlcrmuuEOV3W4Pfk2aOXNmvbtjBZ6XLr93XS6X0v/vqt2Bs34kaerUqdq7d2/wuYULFwZvsy5dvitfUVGR0tPTW3T3K87UAQAAAFqOoU478fv9Wrp0qUaNGhU88+a+++5TdXW1pk2bpsTEREmXhzHjxo3T4sWL9dVXX2nXrl3asGGDJGnp0qWSpBUrVgQHM4HBzZIlS4LX3AkIXGgZ0anu9UsiraUXSrbZuik//w5JksXSWefOXVB6+h/qvX7atO/rBz9IbL9iTS4tLS2kXOD6M4Ghy9XY7Xa98sorTX7ccHjS1NcHi8Wi/Px8SdKkSZOa3F/DpaQN84FtSKp34WSbzabCwsIWdHRZoH+z3s0PAAAAiCSGOu2k7g9KUvMDl8DyK0m67bbbgo/XzbdkO0BjrnbNm6aet1jilJ9/R3DIg/Y1cuRIvfPOOyotLdW9995rdDmGKSkpkSSNGDHC4EoAAACA6Mc1dQAgCqSmpkq6fD2bS5cuGVyNMS5duqSPPvpIknTrrbcaXA0AAAAQ/RjqAEAUSEhI0ODBg/Wf//xH//73v40uxxD/+te/dP78ed1www3q37+/0eUAAAAAUY+hDgBEiVtuuUXSt0uQOprS0lJJktPpNLgSAAAAwBwY6gBAlAjcQWrr1q365ptvDK4msr755hv99a9/lSSNHTvW4GoAAAAAc2CoAwBRIjU1VUlJSTpy5Ih2795tdDkRtXv3bh05ckRJSUkaPXq00eUAAAAAptDZ5/M1+4KrPR+NWZhLa4+1Gd+TvJ+b1vBzY8Zj1JbZzMxMvfjii1q7dm2HOmNl7dq1ki73f/HiRV28ePGK10TLMSIbu1m+H5E1KhvO+zCc/ZIlS5YsWfNnO1ut1mbDzT1/tR0bkYX5tOZYm/E9GW421tX93Jj1GLVldsaMGVq/fr327dun/fv3d4hbe+/fv1/79u1Tr169NGPGjEY/n9F0jMjGbpbvR2SNygZeb6aayZIlS5ZsdGRZfgUAUcRqteruu++WJK1YscLgaiIj0Ofdd9/NQB8AAABohc5GFwAAqG/GjBkqLi5WSUmJ1q5dq+zsbKNLajdr165VSUmJ+vTpoxkzZhhdDjqIv/zlL/roo4906dIlxcXFBR/Pz88P/v3mm2/Wj3/8YyPKAwAAaDGGOgAQZa677jrl5eXpscce04oVK+R0OpWSkmJ0WW3u4MGDwbN08vLydN111xlcETqKvn37qqio6IrH6z42adKkSJYEAAAQEpZfAUAUysjI0MyZM3Xx4kU9/vjjqqmpMbqkNlVTU6PHH39cFy9e1MyZM5WRkWF0SehAnE6nevbs2eTzPXv2lNPpjGBFAAAAoWGoAwBR6qGHHtKwYcNUXV2tRYsW6fz580aX1CbOnz+vRYsWqbq6WsOGDdNDDz1kdEnoYK699lqNGzeuyefHjRuna6+9NoIVAQAAhIahDgBEqa5du2rZsmXq3bu39uzZo0cffVTnzp0zuqyw+Hw+Pfroo9qzZ4/69OmjZcuWqWvXrkaXhQ6oueVVLL0CAABmwVAHAKJY//799fLLL6tfv34qLS3Vww8/rDNnzhhdVkjOnDmjX//61yotLVW/fv20atUq9e/f3+iy0EGNGjVK3bt3v+LxHj16aNSoUQZUBAAA0HpcKBmIev8VUqqqqkpJSUkhZX0+X8i3lg4ni8YNGjRIL7/8subOnauDBw9qzpw5euGFF9S3b1+jS2uxU6dO6eGHH9Ynn3yipKQkvfTSSwx0YKguXbpo9OjR2r59e73Hb7vtNnXp0sWgqgAAAFqHM3UAwASSkpK0evVqDRo0SJ988onuvfde7dq1y+iyWmTXrl2699579cknnwQHVAx0EA3Gjx9/xWOTJ082oBIAAIDQMNQBAJPo16+fVq9erUmTJumLL77QI488ouXLl0ftdXbOnTun5cuX65FHHtEXX3yhjIwMrV69Wv369TO6NEDS5btgxcfHBz+Oj49XamqqgRUBAAC0Tkwsv3I4HEaXAAAR0adPH/3ud79TYWGhCgsL9dprr2n37t2aN2+efvSjH0XFHXu+/vprvffeeyooKFBFRYV69eql+fPna8KECSzNQ1SxWCxKS0vTtm3bJEljxoxRt27dDK4KAACg5Ux9ps6IESOMLgFh4hgCoZk8ebLWr1+vUaNGqaKiQgsWLNCMGTNUXFwsv99vSE1+v1/FxcWaMWOGFixYoIqKCo0aNUrr169XZmamITUBV1P3TlcsvQIAAGZj6jN11qxZc8Vj4Vyk1YwXlu1o/QL4VkJCgl588UXt2LFDK1as0KFDh7R06VKtXLlSd955pyZOnKjk5OR2r+Pw4cPavn27iouLdeLECUnS0KFDNWfOHGVkZLT7/oFwpKWlqWvXrsG/AwAAmEmns2fP1jb1ZEf74Zt+Yxv9xraO3u/XX3+tHTt26JVXXtHRo0eDj990002aNGmSxo8fr0GDBqlTp05h77u2tlZHjx7V3//+d23btk0ff/xx8LlBgwbp/vvvV0ZGRpsuBevoxzfWGd3v//zP/0iSnn766Yjsz+h+I41+mxYYfO/YsaM9S2pXHN/YRr+xjX5jQ+fmmjLj2SdkyZIl21Gzd955p37yk5/oH//4hzZv3qySkhJ9/PHH+vjjj/X888/LarXKbrdryJAhGjp0qG688Ub16NFD8fHxwf+6du2qCxcu6Pz588H/zp07p6NHj+rQoUM6cuSIPv30U509eza43549eyotLU2TJ09Wenq64uLiItIvWbJtlZ02bZo6derUqu0YXTPZ2MoGXm+mmsmSJUuWbHRkTb38CgBQX1xcnMaPH6/x48fr4sWL+uCDD7Rz506VlpaqoqJCBw4c0IEDB8LaR6dOnTRo0CDdeuutmjhxom6++eYmBzmIDbW1tXrrrbf0t7/9TYcPH9bp06eNLqldLFq0yOgS2lzfvn1lt9vldDp19913G10OAABoYwx1ACBGdenSRenp6UpPT5cknT9/XocOHdK+ffv02Wef6fPPP9f58+f11VdfBf/0+/2yWCzq1q2b4uPjg3/ecMMNGjZsmAYNGqSRI0fWuw00Ylttba3uuOMOVVVVGV0KQnDq1CmdOnVKpaWlKi4ultvtVufO/O8fAACxgu/qANBBxMfHa+TIkUpOTg7rFFAGOh3LunXrVFVVpW7duumxxx5TampqyBfZR+SdOHFCe/bs0fLly3X8+HH96U9/Uk5OjtFlAQCANmLqW5oDAID29f7770uSFixYoLvuuouBjslcf/31uvPOO/XYY49JkrZt22ZwRQAAoC0x1AEAAE369NNPJUljxowxuBKEIzU1VZJ0/PhxgysBAABtiaEOAABo0qlTpyRdPuMD5hU4w+rcuXMGVwIAANoSQx0AAAAAAAATYqgDAAAAAABgQgx1AAAAAAAATIihDgAAAAAAgAkx1AEAAAAAADAhhjoAAAAAAAAmxFAHAAAAAADAhDodO3astj02bLVa5fP5TJUNB/1GfzYc9Bv92XDQb/Rnw0G/4WVvv/12SZLH4wm7NhjL4XBIkt59991WZ2Pl/RyJbGsE/n0Fjkms99uW+6XfyGTDQb/Rnw0H/UZPtlNtbW2TQ52qqiolJSWFtHOfzyer1WqqLP1GZr/0G5ks/UZmv/QbmSz9Rma/jWUDgwCGOuYXzrGMlfdzJLKt6bfhMYn1fttyv/QbmSz9Rma/9BuZbKz2y/IrAAAAAAAAE2KoAwAAAAAAYEIMdQAAAAAAAEyIoQ4AAAAAAIAJMdQBAAAAAAAwIYY6AAAAAAAAJsRQBwAAAAAAwIQY6gAAAAAAAJgQQx0AAAAAAAATYqgDAAAAAABgQgx1AAAAAAAATIihDgAAAAAAgAkx1AEAABHhdrvlcrlCypaXl+unP/2pHA6HPB5PWNsCAACIFZ19Pl+zL7ja82TJkiVLlixZsu3J7/dr9erVysnJUWZmpiSpsrKyXfdZXl4BSgF2AAAJNElEQVSuJ554Qk899ZTsdnu77ivSQj3GZnxPmiVb9/VmqZksWbJkyUZHtrPVam023NzzV9sxWbJkyZIlS7ZjZNuT3+9XZWWlsrKyjC4lJoRyjM34njRTNvB6M9VMlixZsmSjI8vyKwAAEHF+v195eXmaNWuWvF6vpMvLsxwOhxwOR/Dx8vJy3XfffTp48KBmz55d7/XNbcvlcgW3lZeXJ7/f32gdXq9Xs2bNqrdPj8ej6dOnq6ysTNOnT1deXp68Xq/y8vK0bds2zZo1K/jawL4D+2q4JKypOjwej/Ly8vT6668Hn3e73fWWmTXWKwAAQF2djS4AAAB0LH6/X0uXLlVCQoLy8/MlXV7u1L17d3k8nuDz69atU25urv785z9r/vz5mjdvnhwOx1W35fF4lJaWptzcXHm9Xs2fP19btmwJLt2qm122bJmysrJUWFgor9ersrIypaena8OGDfWWXwWGMevWrdNzzz0nm81Wb99163a73crMzLxqHZs3b9aoUaPk8Xjk8Xg0e/ZsTZs2TRs2bJCkep+DtvTkk0+2OnPp0iXFxcWFtL/z588rPj4+pGw4+zUqG06/AAC0FkMdAAAQUatWrZIk5eTkBB+z2+3Ba9dYLBaNGjVKFRUVIW2r7uDHZrPJ6XQ2u43Afmw2m9LT05t9bVZWlmw2mySprKxMlZWVWrhwYaN1X62OlJQUjRs3TpKUnJyslJQUZWVlyWKxSFKLPwet9e6777b5NhG6Xr16GV0CAMDEGOoAAICIWbt2rRITE+VyuYLDC+nymTq5ubmqrq4OPjZt2rQml001t63AWS91ZWdnX5G3WCxauHCh5s+fL4fDoWnTpmnRokX1ttXQgAED6n188OBBTZw4sd5jgbrLysqarWPAgAHN7kuSjh8/Lr/ff9XXtcYTTzzR6kw4NXi93uAgLJL7NSrb2n779+8f0n4AAJAY6gAAgAjKzs7WwIED9eSTT9ZbxtTw7lZut1t79+5t9ba8Xq8KCgq0cuXK4Jkyzd363GazqbCwMLh0atWqVa1a7pSSkhLcd12trSOS7rjjjlZnwrnIY1VVlZKSkkLKRvOFKZsSTr8AALQWF0oGAAARlZmZKafTqfnz5zd6IWCv16uioqI22VZ5ebm2bNnSaNbr9er111+X9O3SqdZITk6WJO3cuTP4mNvtlsfjaVUdAAAAoWKoAwAAIi43N1dOp1P33Xefqqur9eCDD2rVqlVyOByaP39+8Fozrd1WTU2N5s2bp9mzZ8vhcGj16tVNXifHZrOpW7duwbtPFRUVaebMmZIuX+Pn1ltvDd79qrFlYDabTc8995yKioqC25AuX0vHZrO1uA4AAIBQsfwKAABERMO7T+Xm5tZb6rRp06ZGcxaLRYWFhS3elt1ub/RsmaZqaritpuoL3F2rrsDyrcY4HI4m66g7BGpqO83VBgAAIHGmDgAAAAAAgCkx1AEAAAAAADAhhjoAAAAAAAAmxFAHAAAAAADAhBjqAAAAAAAAmFCns2fP1jb1pM/nk9VqjWQ9hqLf2Ea/sY1+Yxv9GicjI0OSWnw3KUSvwN22duzYEdH9RtP7ORLoN7bRb2yj39gWq/12bq6pcJomS5YsWbJkyXacLMwjlGNsxvckWbJkyZIl2xGyLL8CAAAAAAAwIYY6AAAAAAAAJsRQBwAAAAAAwIQY6gAAAAAAAJgQQx0AAAAAAAATYqgDAAAAAABgQgx1AAAAAAAATIihDgAAAAAAgAkx1AEAAAAAADAhhjoAAAAAAAAmxFAHAAAAAADAhBjqAAAAAAAAmBBDHQAAAAAAABPqdPbs2dqmnvT5fLJarZGsx1D0G9voN7bRb2yjX+NkZGRIkjwej8GVIFwOh0OStGPHjojuN5rez5FAv7GNfmMb/ca2WO23c3NNhdM0WbJkyZIlS9b82b59++rUqVM6ceKErr/++pC2C+NVVVVJkrp37x7S+yOa3pNkyZIlS5Ys2W+x/AoAADTJbrdLkvbs2WNwJQhHSUmJJCkhIcHgSgAAQFtiqAMAAJrkdDolScuXL9fGjRuDZ3zAHE6cOKHi4mL94Q9/kCSNHj3a4IoAAEBb6mx0AQAAIHplZ2frnXfeUVVVlX7zm98YXQ7CkJCQoIcfftjoMgAAQBviTB0AANCkuLg4bdy4UXPnztV3v/td9ejRw+iS0Ao9evRQcnKyfvazn2nNmjXq2rWr0SUBAIA2xJk6AACgWZ07d1ZOTo5ycnKafE04FwGsqqpSUlJSSNlovnBhU4zsFwAAxBbO1AEAAAAAADAhhjoAAAAAAAAmxFAHAAAAAADAhBjqAAAAAAAAmBBDHQAAAAAAABNiqAMAAAAAAGBCDHUAAAAAAABMiKEOAAAAAACACXU6duxYbXts2Gq1yufzmSobDvqN/mw46Df6s+Gg3+jPhoN+oz8bDvqN/mw46Df6s+Gg3+jPhoN+oz8bDvqNnmyn2traJoc6VVVVSkpKCmnnPp9PVqvVVFn6jcx+6TcyWfqNzH7pNzJZ+o3Mfuk3Mln6jcx+6TcyWfqNzH7pNzJZ+o3Mfum3bbMsvwIAAAAAADAhhjoAAAAAAAAmxFAHAAAAAADAhBjqAAAAAAAAmBBDHQAAAAAAABNiqAMAAAAAAGBCDHUAAAAAAABMiKEOAAAAAACACTHUAQAAAAAAMCGGOgAAAAAAACbEUAcAAAAAAMCEGOoAAAAAAACYEEMdAAAAAAAAE+p09uzZ2qae9Pl8slqtkazHUPQb2+g3ttFvbKPf2Ea/sY1+Yxv9xjb6jW30Gxs6N9dUOE2TJUuWLFmyZMmSJUuWLFmyZMmSbb8sy68AAAAAAABMiKEOAAAAAACACTHUAQAAAAAAMCGGOgAAAAAAACbEUAcAAAAAAMCEGOoAAAAAAACYEEMdAAAAAAAAE2KoAwAAAAAAYEIMdQAAAAAAAEyIoQ4AAAAAAIAJMdQBAAAAAAAwIYY6AAAAAAAAJsRQBwAAAAAAwIQ6nT17trapJ30+n6xWayTrMRT9xjb6jW30G9voN7bRb2yj39hGv7GNfmMb/caGzs01FU7TZMmSJUuWLFmyZMmSJUuWLFmyZNsvy/IrAAAAAAAAE2KoAwAAAAAAYEIMdQAAAAAAAEyIoQ4AAAAAAIAJ/X8aYsy4eH1TOAAAAABJRU5ErkJggg==;" vertex="1" parent="1">
          <mxGeometry x="-100" y="440" width="1141" height="397" as="geometry" />
        </mxCell>
      </root>
    </mxGraphModel>
  </diagram>
</mxfile>
